# xmcd CD database file
#
# Track frame offsets:
#	150
#	18047
#	38472
#	58392
#	77090
#	94417
#	111007
#	129400
#	148027
#	166390
#	188167
#
# Disc length: 2803 seconds
#
# Revision: 0
# Processed by: cddbd v1.5PL3 Copyright (c) Steve Scherf et al.
# Submitted via: CDex 1.51
#
DISCID=8c0af10b
DTITLE=松永夏代子 - 微少女宇宙
DYEAR=2001
DGENRE=Pop
TTITLE0=メランコリーの軌跡
TTITLE1=ALICE's ROMANCE(アリスのロマンス)
TTITLE2=今をいじめて泣かないでII
TTITLE3=月の光が困らせる 
TTITLE4=天使の休日
TTITLE5=そんなつもりじゃNINETEEN
TTITLE6=Amaryllis -アマリリス-
TTITLE7=急にさよならと言ったから
TTITLE8=少年宇宙
TTITLE9=ピアスのなみだ
TTITLE10=さよならボビー
EXTD=YEAR: 2001
EXTT0=
EXTT1=
EXTT2=
EXTT3=
EXTT4=
EXTT5=
EXTT6=
EXTT7=
EXTT8=
EXTT9=
EXTT10=
PLAYORDER=
